<?xml version="1.0" encoding="UTF-8"?>
<svg version="1.1" xmlns="http://www.w3.org/2000/svg" width="254" height="157">
<path d="M0 0 C0.83205963 -0.00006042 1.66411926 -0.00012085 2.52139282 -0.00018311 C18.95985019 0.01678675 35.2598042 0.63989249 51.375 4.1875 C50.81169587 9.3391723 48.32637795 13.32757406 45.8125 17.75 C45.36068359 18.55211914 44.90886719 19.35423828 44.44335938 20.18066406 C40.71542137 26.72953117 36.70868206 33.02128953 32.375 39.1875 C31.59748103 40.31628558 30.82014523 41.44519734 30.04296875 42.57421875 C24.28047432 50.86661674 18.01363628 58.58436324 11.375 66.1875 C10.73691406 66.92613281 10.09882813 67.66476563 9.44140625 68.42578125 C7.76500921 70.35770301 6.07290956 72.27447068 4.375 74.1875 C3.70210937 74.95320313 3.02921875 75.71890625 2.3359375 76.5078125 C-5.77328806 85.64860032 -14.29514825 94.29044691 -23.625 102.1875 C-24.5325 102.98414062 -25.44 103.78078125 -26.375 104.6015625 C-60.2096148 134.124721 -104.26284181 159.59578386 -150.60009766 157.33105469 C-166.86191942 156.17817897 -181.5327731 150.66880872 -192.625 138.1875 C-201.10686897 126.75228387 -203.59961511 114.21348267 -202.625 100.1875 C-198.58137962 75.64246676 -182.28233813 56.8402571 -162.5625 42.6875 C-115.76781604 10.96240895 -55.64430133 -0.0623714 0 0 Z " fill="#ED1D26" transform="translate(202.625,-0.1875)"/>
<path d="M0 0 C3.625 0.375 3.625 0.375 7 1 C7 3.64 7 6.28 7 9 C7.58007812 8.95359375 8.16015625 8.9071875 8.7578125 8.859375 C14.41927486 8.59778928 17.53377393 9.17180622 22 13 C26.42804892 17.69389057 25.52193609 23.24511705 25.50097656 29.36230469 C25.50000654 31.36152849 25.54282701 33.36061583 25.5859375 35.359375 C25.60780506 46.14007962 25.60780506 46.14007962 22.71875 49.7890625 C18.11790237 53.53055641 15.1252482 54.46711179 9.25 54.3125 C5.66130423 53.81407003 3.65610399 52.4031417 1 50 C-2.37493407 44.77319448 -2.4260943 40.30865755 -2.36328125 34.296875 C-2.36377975 33.37787415 -2.36427826 32.45887329 -2.36479187 31.51202393 C-2.36246003 29.57895737 -2.35278426 27.64588728 -2.33618164 25.71289062 C-2.31246659 22.74582021 -2.31564254 19.7796419 -2.32226562 16.8125 C-2.3166925 14.93228629 -2.30958493 13.05207636 -2.30078125 11.171875 C-2.30169266 10.28232117 -2.30260406 9.39276733 -2.30354309 8.47625732 C-2.23106616 2.23106616 -2.23106616 2.23106616 0 0 Z " fill="#FEF8F8" transform="translate(82,51)"/>
<path d="M0 0 C3.93270592 1.94312832 6.39694122 4.94955075 8 9 C8.45289337 13.2800326 8.37029886 17.57345753 8.375 21.875 C8.39949219 23.04675781 8.42398438 24.21851563 8.44921875 25.42578125 C8.47124615 31.89449415 8.46476911 36.13762622 4 41 C0.70425546 43.89626035 -1.90399155 44.89660298 -6.3125 45.3125 C-11.59592627 44.86475201 -14.41484093 42.79651361 -17.875 38.875 C-19.56540402 34.55507861 -19.79690856 30.56942984 -19 26 C-17.08009761 22.40294149 -14.38041879 20.25361252 -11 18 C-8.51953125 17.8046875 -8.51953125 17.8046875 -5.8125 17.875 C-4.91144531 17.89304687 -4.01039062 17.91109375 -3.08203125 17.9296875 C-2.39496094 17.95289062 -1.70789063 17.97609375 -1 18 C-1.66 15.36 -2.32 12.72 -3 10 C-4.65 10 -6.3 10 -8 10 C-8.556875 11.4540625 -8.556875 11.4540625 -9.125 12.9375 C-11 16 -11 16 -14.0625 17 C-15.031875 17 -16.00125 17 -17 17 C-19 15 -19 15 -19.4375 11.75 C-18.86086354 6.80740173 -17.47773249 5.47773249 -14 2 C-9.5357313 -0.97617913 -5.23275258 -0.74006072 0 0 Z " fill="#FEF7F7" transform="translate(70,60)"/>
<path d="M0 0 C4.24399505 1.57185002 6.70521091 3.10383202 9 7 C9.55187404 11.27327243 9.47292385 15.53827582 9.44604492 19.84448242 C9.43753908 21.92792717 9.46630093 24.00862311 9.49804688 26.09179688 C9.49740234 27.41115234 9.49675781 28.73050781 9.49609375 30.08984375 C9.49887329 31.89763306 9.49887329 31.89763306 9.50170898 33.74194336 C8.90434324 37.62118712 7.72538014 39.22808519 5 42 C0.58517724 44.845108 -2.77655808 45.65293024 -8 45 C-12.77655522 42.56489342 -15.56489342 39.77655522 -18 35 C-18.87159882 29.00775813 -17.39453687 25.77070047 -14 21 C-9.75933794 17.24398503 -5.36661963 17.68431649 0 18 C-0.18464366 13.65815798 -0.18464366 13.65815798 -2 10 C-3.66617115 9.95936168 -5.33388095 9.957279 -7 10 C-7.391875 10.969375 -7.78375 11.93875 -8.1875 12.9375 C-10 16 -10 16 -12.5 17 C-15 17 -15 17 -18 15 C-18 10.89407082 -17.92683834 8.26494518 -15.46875 4.91015625 C-10.64316959 0.2281943 -6.64137982 -1.35287367 0 0 Z " fill="#FEF7F8" transform="translate(127,60)"/>
<path d="M0 0 C3.668173 3.22354597 4.97096377 5.77174293 5.40307617 10.68481445 C5.40260527 12.18188742 5.38589701 13.67901747 5.35546875 15.17578125 C5.35122391 15.96776413 5.34697906 16.75974701 5.34260559 17.57572937 C5.32588163 20.09250627 5.28824225 22.60846724 5.25 25.125 C5.23494499 26.83657693 5.22125801 28.54816649 5.20898438 30.25976562 C5.17599885 34.44432233 5.12426098 38.62827307 5.0625 42.8125 C2.25 43.4375 2.25 43.4375 -0.9375 43.8125 C-1.9275 43.1525 -2.9175 42.4925 -3.9375 41.8125 C-4.27552675 39.26670623 -4.4262947 36.95100914 -4.44921875 34.3984375 C-4.47614555 33.30397812 -4.47614555 33.30397812 -4.50361633 32.18740845 C-4.55785132 29.85416465 -4.59165562 27.52112686 -4.625 25.1875 C-4.65816162 23.60674208 -4.6926502 22.02601139 -4.72851562 20.4453125 C-4.81358467 16.56785674 -4.88033178 12.69046345 -4.9375 8.8125 C-6.93704746 8.76995644 -8.93791636 8.77169217 -10.9375 8.8125 C-12.88271284 10.75771284 -12.16813607 14.43343996 -12.21875 17.09375 C-12.23715942 17.82243286 -12.25556885 18.55111572 -12.27453613 19.30187988 C-12.3334594 21.63866893 -12.38620654 23.97553173 -12.4375 26.3125 C-12.50495015 29.38557911 -12.57861793 32.45841316 -12.65625 35.53125 C-12.66982544 36.24478638 -12.68340088 36.95832275 -12.6973877 37.69348145 C-12.82469819 42.69969819 -12.82469819 42.69969819 -13.9375 43.8125 C-16.875 44 -16.875 44 -19.9375 43.8125 C-22.72264131 41.02735869 -22.27944247 38.41099694 -22.30859375 34.6796875 C-22.31762222 33.9690213 -22.3266507 33.2583551 -22.33595276 32.52615356 C-22.35047582 31.01812966 -22.3593471 29.51004245 -22.36303711 28.00195312 C-22.37485098 25.71633055 -22.42393496 23.433483 -22.47460938 21.1484375 C-22.6234091 7.94422897 -22.6234091 7.94422897 -18.40649414 2.16455078 C-13.3644855 -2.47607475 -6.10786385 -2.46913645 0 0 Z " fill="#FEF5F5" transform="translate(42.9375,61.1875)"/>
<path d="M0 0 C2.9375 0.1875 2.9375 0.1875 3.9375 1.1875 C4.07865161 3.85808851 3.97997107 6.51182238 3.9375 9.1875 C5.236875 9.166875 6.53625 9.14625 7.875 9.125 C9.22915633 9.10350546 10.58506083 9.11601801 11.9375 9.1875 C12.9375 10.1875 12.9375 10.1875 13.125 13.125 C12.9375 16.1875 12.9375 16.1875 10.9375 18.1875 C8.9575 18.1875 6.9775 18.1875 4.9375 18.1875 C5.2675 26.7675 5.5975 35.3475 5.9375 44.1875 C8.2475 44.8475 10.5575 45.5075 12.9375 46.1875 C13.9375 47.1875 13.9375 47.1875 14.125 49.625 C13.9375 52.1875 13.9375 52.1875 11.9375 54.1875 C7.16012802 54.9146752 3.14212741 54.89019932 -1.0625 52.4375 C-4.13147231 48.98490615 -5.31170024 46.34661334 -5.32128906 41.72607422 C-5.33074554 40.41484085 -5.33074554 40.41484085 -5.34039307 39.07711792 C-5.3363446 38.14159088 -5.33229614 37.20606384 -5.328125 36.2421875 C-5.33003845 35.27596466 -5.3319519 34.30974182 -5.33392334 33.3142395 C-5.33528276 31.27508279 -5.33160327 29.23591736 -5.32324219 27.19677734 C-5.31251606 24.06718662 -5.32315771 20.9381669 -5.3359375 17.80859375 C-5.33461632 15.82812373 -5.33205478 13.84765406 -5.328125 11.8671875 C-5.33217346 10.927612 -5.33622192 9.9880365 -5.34039307 9.01998901 C-5.33408875 8.15213776 -5.32778442 7.2842865 -5.32128906 6.39013672 C-5.31969788 5.62498749 -5.31810669 4.85983826 -5.31646729 4.07150269 C-4.84099262 0.5442943 -3.33738803 0.20432988 0 0 Z " fill="#FDF2F3" transform="translate(144.0625,50.8125)"/>
<path d="M0 0 C3.0625 0.1875 3.0625 0.1875 5.0625 2.1875 C5.27490485 5.24915064 5.36645299 8.21801818 5.36328125 11.28125 C5.36756638 12.1837146 5.3718515 13.0861792 5.37626648 14.01599121 C5.38201473 15.92585409 5.38250641 17.83573886 5.37817383 19.74560547 C5.37501259 22.67583333 5.39847099 25.60505324 5.42382812 28.53515625 C5.42610085 30.38801955 5.42680474 32.24088558 5.42578125 34.09375 C5.434991 34.97397827 5.44420074 35.85420654 5.45368958 36.7611084 C5.43481445 39.22851562 5.43481445 39.22851562 5.0625 43.1875 C2.0625 45.1875 2.0625 45.1875 -1.125 44.8125 C-2.053125 44.60625 -2.98125 44.4 -3.9375 44.1875 C-3.96214513 38.0819529 -3.98033371 31.97643449 -3.99243164 25.87084961 C-3.99747288 23.79206844 -4.00430574 21.71329084 -4.01293945 19.63452148 C-4.02501422 16.65347414 -4.03073024 13.67247351 -4.03515625 10.69140625 C-4.04289818 9.28828941 -4.04289818 9.28828941 -4.05079651 7.85682678 C-4.05087204 6.99600998 -4.05094757 6.13519318 -4.05102539 5.24829102 C-4.053246 4.48662125 -4.05546661 3.72495148 -4.05775452 2.94020081 C-3.84859353 -0.10830536 -3.08559038 0.19695258 0 0 Z " fill="#FEF8F8" transform="translate(163.9375,59.8125)"/>
<path d="M0 0 C2.375 0.6875 2.375 0.6875 3.375 1.6875 C3.46226223 3.46821246 3.48199041 5.2523314 3.47265625 7.03515625 C3.46943359 8.11474609 3.46621094 9.19433594 3.46289062 10.30664062 C3.45451172 11.44294922 3.44613281 12.57925781 3.4375 13.75 C3.43298828 14.89017578 3.42847656 16.03035156 3.42382812 17.20507812 C3.41199747 20.03260351 3.3955141 22.8600264 3.375 25.6875 C-0 26.3125 -0 26.3125 -3.625 26.6875 C-6.67322999 23.63927001 -5.91837257 20.59944693 -5.94726562 16.43359375 C-5.94404297 15.36238281 -5.94082031 14.29117188 -5.9375 13.1875 C-5.95361328 12.11628906 -5.96972656 11.04507813 -5.98632812 9.94140625 C-5.98697266 8.91917969 -5.98761719 7.89695312 -5.98828125 6.84375 C-5.99126221 5.90337891 -5.99424316 4.96300781 -5.99731445 3.99414062 C-5.87445068 3.23294922 -5.75158691 2.47175781 -5.625 1.6875 C-2.625 -0.3125 -2.625 -0.3125 0 0 Z " fill="#ED1C24" transform="translate(94.625,69.3125)"/>
<path d="M0 0 C2.5625 0.1875 2.5625 0.1875 4.5625 2.1875 C4.6875 5.8125 4.6875 5.8125 4.5625 9.1875 C-1.96057692 9.55673077 -1.96057692 9.55673077 -4.375 7.6875 C-4.9009375 6.945 -4.9009375 6.945 -5.4375 6.1875 C-3.15091463 0.24237805 -3.15091463 0.24237805 0 0 Z " fill="#ED2129" transform="translate(122.4375,68.8125)"/>
<path d="M0 0 C1.670625 0.061875 1.670625 0.061875 3.375 0.125 C3.5625 3.5 3.5625 3.5 3.375 7.125 C0.375 9.125 0.375 9.125 -2.25 8.8125 C-4.625 8.125 -4.625 8.125 -5.625 7.125 C-5.8125 4.6875 -5.8125 4.6875 -5.625 2.125 C-3.625 0.125 -3.625 0.125 0 0 Z " fill="#ED1E25" transform="translate(65.625,86.875)"/>
<path d="M0 0 C0.125 3.375 0.125 3.375 0 7 C-0.66 7.66 -1.32 8.32 -2 9 C-5.29714793 8.67028521 -6.6226839 8.3773161 -9 6 C-8.75 3.4375 -8.75 3.4375 -8 1 C-5.29120665 -0.35439668 -2.99066732 -0.06501451 0 0 Z " fill="#ED1921" transform="translate(127,87)"/>
<path d="M0 0 C0 3 0 3 -2.625 5.91796875 C-3.74249406 7.01550756 -4.86785643 8.10507895 -6 9.1875 C-6.57234375 9.74630859 -7.1446875 10.30511719 -7.734375 10.88085938 C-9.14962788 12.26073093 -10.57397155 13.63126734 -12 15 C-12.66 14.67 -13.32 14.34 -14 14 C-12.23304141 12.03804598 -10.46168211 10.08040373 -8.6875 8.125 C-8.18798828 7.56941406 -7.68847656 7.01382813 -7.17382812 6.44140625 C-4.8912844 3.93211977 -2.83639832 1.89093222 0 0 Z " fill="#F04348" transform="translate(30,51)"/>
<path d="M0 0 C0.33 0 0.66 0 1 0 C1.66 2.31 2.32 4.62 3 7 C2.34 7 1.68 7 1 7 C1.37125 8.11375 1.7425 9.2275 2.125 10.375 C3.45646473 15.53442583 2.34702682 19.94346854 1 25 C0.67 25 0.34 25 0 25 C0 16.75 0 8.5 0 0 Z " fill="#EC0B13" transform="translate(108,70)"/>
<path d="M0 0 C0.66 0 1.32 0 2 0 C2.0292483 3.20831391 2.04688189 6.41659307 2.0625 9.625 C2.07087891 10.52863281 2.07925781 11.43226562 2.08789062 12.36328125 C2.10491895 17.02904289 1.96829423 21.41013285 1 26 C0.67 26 0.34 26 0 26 C-0.19583915 21.85451585 -0.38027842 17.7086033 -0.5625 13.5625 C-0.61857422 12.37849609 -0.67464844 11.19449219 -0.73242188 9.97460938 C-0.78076172 8.84990234 -0.82910156 7.72519531 -0.87890625 6.56640625 C-0.9260376 5.52427979 -0.97316895 4.48215332 -1.02172852 3.40844727 C-1 1 -1 1 0 0 Z " fill="#EC0410" transform="translate(49,68)"/>
</svg>
